<svg xmlns="http://www.w3.org/2000/svg" width="1024" height="1024" viewBox="0 0 1024 1024">
  <defs>
    <linearGradient id="mapleBase" x1="0" x2="1" y1="0" y2="1">
      <stop offset="0" stop-color="#f5e6b6"/>
      <stop offset="0.45" stop-color="#d8bd77"/>
      <stop offset="1" stop-color="#fff1c8"/>
    </linearGradient>
    <filter id="mapleFigure" x="-20%" y="-20%" width="140%" height="140%">
      <feTurbulence type="fractalNoise" baseFrequency="0.018 0.055" numOctaves="5" seed="34"/>
      <feColorMatrix type="matrix" values="
        0.85 0.22 0.04 0 0.14
        0.28 0.72 0.10 0 0.10
        0.05 0.22 0.58 0 0.02
        0    0    0    0.34 0"/>
    </filter>
    <radialGradient id="mapleKnot" cx="50%" cy="50%" r="50%">
      <stop offset="0" stop-color="#7c4a1f" stop-opacity="0.82"/>
      <stop offset="0.22" stop-color="#b87b31" stop-opacity="0.50"/>
      <stop offset="0.48" stop-color="#f3d991" stop-opacity="0.12"/>
      <stop offset="0.70" stop-color="#8a5524" stop-opacity="0.46"/>
      <stop offset="1" stop-color="#fff0bd" stop-opacity="0"/>
    </radialGradient>
    <pattern id="fineLines" width="128" height="128" patternUnits="userSpaceOnUse">
      <path d="M-30 18 C20 6, 58 44, 132 18 M-26 66 C26 48, 74 94, 144 70 M-12 116 C38 98, 70 132, 138 108" fill="none" stroke="#8f5a24" stroke-width="4" stroke-opacity="0.18"/>
      <path d="M-18 36 C36 30, 54 70, 134 42 M-8 92 C44 82, 78 116, 146 90" fill="none" stroke="#fff1c9" stroke-width="5" stroke-opacity="0.22"/>
    </pattern>
  </defs>
  <rect width="1024" height="1024" fill="url(#mapleBase)"/>
  <rect width="1024" height="1024" filter="url(#mapleFigure)" opacity="0.9"/>
  <rect width="1024" height="1024" fill="url(#fineLines)"/>
  <g fill="url(#mapleKnot)" stroke="#7a471b" stroke-opacity="0.35">
    <ellipse cx="170" cy="145" rx="115" ry="68" transform="rotate(-24 170 145)" stroke-width="8"/>
    <ellipse cx="474" cy="118" rx="98" ry="58" transform="rotate(18 474 118)" stroke-width="7"/>
    <ellipse cx="815" cy="190" rx="132" ry="74" transform="rotate(-12 815 190)" stroke-width="8"/>
    <ellipse cx="280" cy="420" rx="148" ry="86" transform="rotate(26 280 420)" stroke-width="9"/>
    <ellipse cx="630" cy="390" rx="122" ry="70" transform="rotate(-31 630 390)" stroke-width="8"/>
    <ellipse cx="900" cy="520" rx="102" ry="64" transform="rotate(19 900 520)" stroke-width="7"/>
    <ellipse cx="128" cy="750" rx="118" ry="74" transform="rotate(32 128 750)" stroke-width="8"/>
    <ellipse cx="520" cy="740" rx="164" ry="92" transform="rotate(-17 520 740)" stroke-width="10"/>
    <ellipse cx="838" cy="850" rx="128" ry="80" transform="rotate(25 838 850)" stroke-width="8"/>
  </g>
  <g fill="none" stroke-linecap="round">
    <path d="M92 160 C154 70, 247 126, 204 202 C168 268, 77 226, 114 150" stroke="#4f2c12" stroke-width="10" stroke-opacity="0.22"/>
    <path d="M405 110 C480 34, 575 112, 508 184 C455 242, 368 177, 420 104" stroke="#5d3516" stroke-width="9" stroke-opacity="0.20"/>
    <path d="M224 410 C312 306, 424 408, 340 494 C274 562, 172 490, 234 394" stroke="#593112" stroke-width="12" stroke-opacity="0.20"/>
    <path d="M470 726 C578 616, 718 754, 608 850 C520 928, 382 830, 488 706" stroke="#613815" stroke-width="13" stroke-opacity="0.20"/>
    <path d="M748 842 C842 746, 964 854, 878 940 C798 1018, 684 936, 762 826" stroke="#513016" stroke-width="10" stroke-opacity="0.20"/>
  </g>
  <rect width="1024" height="1024" fill="#fff6d4" opacity="0.10"/>
</svg>
